<svg xmlns="http://www.w3.org/2000/svg" xmlns:xlink="http://www.w3.org/1999/xlink" width="44" height="34.959" viewBox="0 0 44 34.959">
  <defs>
    <clipPath id="clip-path">
      <rect id="Rectangle_1" data-name="Rectangle 1" width="44" height="34.959" transform="translate(20 23.271)" fill="#84899f"/>
    </clipPath>
  </defs>
  <g id="Group_1" data-name="Group 1" transform="translate(-20 -23.271)" clip-path="url(#clip-path)">
    <path id="Path_1" data-name="Path 1" d="M50.65,55.637v2.557c-.15.009-.287.024-.425.024-6.788,0-13.575-.022-20.363.01a5.812,5.812,0,1,1,.022-11.621q5.972-.018,11.942,0a3.214,3.214,0,0,0,.644-6.392,9.744,9.744,0,0,0-1.027-.059q-3.781-.008-7.562,0h-.525V37.6c.138-.01.261-.028.385-.028,2.72,0,5.442-.012,8.162,0a5.8,5.8,0,0,1,.458,11.586c-4.123.067-8.248.026-12.373.028a3.308,3.308,0,0,0-2.848,1.306,3.21,3.21,0,0,0,2.189,5.113,6.122,6.122,0,0,0,.815.029q9.967,0,19.935,0Z" fill="#84899f"/>
    <path id="Path_2" data-name="Path 2" d="M27.058,40.14c-1.755-1.737-3.474-3.418-5.163-5.127a6.686,6.686,0,0,1-.967-1.306,6.99,6.99,0,1,1,11.167,1.327c-1.564,1.652-3.205,3.234-4.811,4.848C27.2,39.96,27.132,40.052,27.058,40.14Zm2.063-9.92a2.161,2.161,0,1,0-2.17,2.154A2.175,2.175,0,0,0,29.121,30.219Z" fill="#84899f"/>
    <path id="Path_3" data-name="Path 3" d="M56.965,58.221c-.434-.446-.865-.9-1.308-1.345-1.172-1.179-2.356-2.343-3.519-3.528a6.933,6.933,0,0,1-.229-9.791,6.975,6.975,0,0,1,12,3.8A6.656,6.656,0,0,1,62,53.214c-1.6,1.657-3.252,3.268-4.881,4.9A1.817,1.817,0,0,1,56.965,58.221ZM54.8,48.266a2.162,2.162,0,1,0,2.152-2.178A2.183,2.183,0,0,0,54.8,48.266Z" fill="#84899f"/>
  </g>
</svg>
